<?xml version="1.0" encoding="us-ascii" standalone="no"?><svg xmlns="http://www.w3.org/2000/svg" xmlns:xlink="http://www.w3.org/1999/xlink" contentStyleType="text/css" height="721px" preserveAspectRatio="none" style="width:2458px;height:721px;background:#FFFFFF;" version="1.1" viewBox="0 0 2458 721" width="2458px" zoomAndPan="magnify"><defs/><g><!--cluster javax--><g id="cluster_javax"><path d="M1393.5,66.17 L1431.5,66.17 A3.75,3.75 0 0 1 1434,68.67 L1441,89.7794 L1657.5,89.7794 A2.5,2.5 0 0 1 1660,92.2794 L1660,231.67 A2.5,2.5 0 0 1 1657.5,234.17 L1393.5,234.17 A2.5,2.5 0 0 1 1391,231.67 L1391,68.67 A2.5,2.5 0 0 1 1393.5,66.17 " fill="none" style="stroke:#000000;stroke-width:1.5;"/><line style="stroke:#000000;stroke-width:1.5;" x1="1391" x2="1441" y1="89.7794" y2="89.7794"/><text fill="#000000" font-family="sans-serif" font-size="14" font-weight="bold" lengthAdjust="spacing" textLength="37" x="1395" y="82.7032">javax</text></g><!--cluster swing--><g id="cluster_swing"><path d="M1417.5,110.17 L1459.5,110.17 A3.75,3.75 0 0 1 1462,112.67 L1469,133.7794 L1633.5,133.7794 A2.5,2.5 0 0 1 1636,136.2794 L1636,207.67 A2.5,2.5 0 0 1 1633.5,210.17 L1417.5,210.17 A2.5,2.5 0 0 1 1415,207.67 L1415,112.67 A2.5,2.5 0 0 1 1417.5,110.17 " fill="none" style="stroke:#000000;stroke-width:1.5;"/><line style="stroke:#000000;stroke-width:1.5;" x1="1415" x2="1469" y1="133.7794" y2="133.7794"/><text fill="#000000" font-family="sans-serif" font-size="14" font-weight="bold" lengthAdjust="spacing" textLength="41" x="1419" y="126.7032">swing</text></g><!--cluster java--><g id="cluster_java"><path d="M492.5,363.67 L522.5,363.67 A3.75,3.75 0 0 1 525,366.17 L532,387.2794 L739.5,387.2794 A2.5,2.5 0 0 1 742,389.7794 L742,597.17 A2.5,2.5 0 0 1 739.5,599.67 L492.5,599.67 A2.5,2.5 0 0 1 490,597.17 L490,366.17 A2.5,2.5 0 0 1 492.5,363.67 " fill="none" style="stroke:#000000;stroke-width:1.5;"/><line style="stroke:#000000;stroke-width:1.5;" x1="490" x2="532" y1="387.2794" y2="387.2794"/><text fill="#000000" font-family="sans-serif" font-size="14" font-weight="bold" lengthAdjust="spacing" textLength="29" x="494" y="380.2032">java</text></g><!--cluster awt--><g id="cluster_awt"><path d="M516.5,407.67 L541.5,407.67 A3.75,3.75 0 0 1 544,410.17 L551,431.2794 L715.5,431.2794 A2.5,2.5 0 0 1 718,433.7794 L718,573.17 A2.5,2.5 0 0 1 715.5,575.67 L516.5,575.67 A2.5,2.5 0 0 1 514,573.17 L514,410.17 A2.5,2.5 0 0 1 516.5,407.67 " fill="none" style="stroke:#000000;stroke-width:1.5;"/><line style="stroke:#000000;stroke-width:1.5;" x1="514" x2="551" y1="431.2794" y2="431.2794"/><text fill="#000000" font-family="sans-serif" font-size="14" font-weight="bold" lengthAdjust="spacing" textLength="24" x="518" y="424.2032">awt</text></g><!--cluster image--><g id="cluster_image"><path d="M540.5,451.67 L583.5,451.67 A3.75,3.75 0 0 1 586,454.17 L593,475.2794 L691.5,475.2794 A2.5,2.5 0 0 1 694,477.7794 L694,549.17 A2.5,2.5 0 0 1 691.5,551.67 L540.5,551.67 A2.5,2.5 0 0 1 538,549.17 L538,454.17 A2.5,2.5 0 0 1 540.5,451.67 " fill="none" style="stroke:#000000;stroke-width:1.5;"/><line style="stroke:#000000;stroke-width:1.5;" x1="538" x2="593" y1="475.2794" y2="475.2794"/><text fill="#000000" font-family="sans-serif" font-size="14" font-weight="bold" lengthAdjust="spacing" textLength="42" x="542" y="468.2032">image</text></g><!--class JPanel--><g id="elem_JPanel"><rect fill="#F1F1F1" height="48" id="JPanel" rx="2.5" ry="2.5" style="stroke:#181818;stroke-width:0.5;" width="74" x="1546" y="146.17"/><ellipse cx="1561" cy="162.17" fill="#ADD1B2" rx="11" ry="11" style="stroke:#181818;stroke-width:1.0;"/><path d="M1563.7656,158.045 Q1563.9219,157.8262 1564.1094,157.7169 Q1564.2969,157.6075 1564.5156,157.6075 Q1564.8906,157.6075 1565.125,157.8731 Q1565.3594,158.1231 1565.3594,158.7325 L1565.3594,160.1856 Q1565.3594,160.795 1565.125,161.0606 Q1564.8906,161.3262 1564.5156,161.3262 Q1564.1719,161.3262 1563.9688,161.1231 Q1563.7656,160.9356 1563.6563,160.42 Q1563.6094,160.0606 1563.4219,159.8731 Q1563.0938,159.4981 1562.4844,159.2794 Q1561.875,159.0606 1561.25,159.0606 Q1560.4844,159.0606 1559.8438,159.3887 Q1559.2188,159.7169 1558.7188,160.4669 Q1558.2344,161.2169 1558.2344,162.2481 L1558.2344,163.3419 Q1558.2344,164.5762 1559.125,165.4044 Q1560.0156,166.2169 1561.6094,166.2169 Q1562.5469,166.2169 1563.2031,165.9669 Q1563.5938,165.8106 1564.0156,165.3731 Q1564.2813,165.1075 1564.4219,165.0294 Q1564.5781,164.9512 1564.7813,164.9512 Q1565.1094,164.9512 1565.3594,165.2169 Q1565.625,165.4669 1565.625,165.8106 Q1565.625,166.1544 1565.2813,166.5606 Q1564.7813,167.1387 1563.9844,167.4669 Q1562.9063,167.92 1561.6094,167.92 Q1560.0938,167.92 1558.8906,167.295 Q1557.9063,166.795 1557.2188,165.7325 Q1556.5313,164.6544 1556.5313,163.3731 L1556.5313,162.2169 Q1556.5313,160.8887 1557.1406,159.7481 Q1557.7656,158.5919 1558.8594,157.9825 Q1559.9531,157.3575 1561.1875,157.3575 Q1561.9219,157.3575 1562.5625,157.5294 Q1563.2188,157.6856 1563.7656,158.045 Z " fill="#000000"/><text fill="#000000" font-family="sans-serif" font-size="14" lengthAdjust="spacing" textLength="42" x="1575" y="167.8985">JPanel</text><line style="stroke:#181818;stroke-width:0.5;" x1="1547" x2="1619" y1="178.17" y2="178.17"/><line style="stroke:#181818;stroke-width:0.5;" x1="1547" x2="1619" y1="186.17" y2="186.17"/></g><!--class JFrame--><g id="elem_JFrame"><rect fill="#F1F1F1" height="48" id="JFrame" rx="2.5" ry="2.5" style="stroke:#181818;stroke-width:0.5;" width="79" x="1431.5" y="146.17"/><ellipse cx="1446.5" cy="162.17" fill="#ADD1B2" rx="11" ry="11" style="stroke:#181818;stroke-width:1.0;"/><path d="M1449.2656,158.045 Q1449.4219,157.8262 1449.6094,157.7169 Q1449.7969,157.6075 1450.0156,157.6075 Q1450.3906,157.6075 1450.625,157.8731 Q1450.8594,158.1231 1450.8594,158.7325 L1450.8594,160.1856 Q1450.8594,160.795 1450.625,161.0606 Q1450.3906,161.3262 1450.0156,161.3262 Q1449.6719,161.3262 1449.4688,161.1231 Q1449.2656,160.9356 1449.1563,160.42 Q1449.1094,160.0606 1448.9219,159.8731 Q1448.5938,159.4981 1447.9844,159.2794 Q1447.375,159.0606 1446.75,159.0606 Q1445.9844,159.0606 1445.3438,159.3887 Q1444.7188,159.7169 1444.2188,160.4669 Q1443.7344,161.2169 1443.7344,162.2481 L1443.7344,163.3419 Q1443.7344,164.5762 1444.625,165.4044 Q1445.5156,166.2169 1447.1094,166.2169 Q1448.0469,166.2169 1448.7031,165.9669 Q1449.0938,165.8106 1449.5156,165.3731 Q1449.7813,165.1075 1449.9219,165.0294 Q1450.0781,164.9512 1450.2813,164.9512 Q1450.6094,164.9512 1450.8594,165.2169 Q1451.125,165.4669 1451.125,165.8106 Q1451.125,166.1544 1450.7813,166.5606 Q1450.2813,167.1387 1449.4844,167.4669 Q1448.4063,167.92 1447.1094,167.92 Q1445.5938,167.92 1444.3906,167.295 Q1443.4063,166.795 1442.7188,165.7325 Q1442.0313,164.6544 1442.0313,163.3731 L1442.0313,162.2169 Q1442.0313,160.8887 1442.6406,159.7481 Q1443.2656,158.5919 1444.3594,157.9825 Q1445.4531,157.3575 1446.6875,157.3575 Q1447.4219,157.3575 1448.0625,157.5294 Q1448.7188,157.6856 1449.2656,158.045 Z " fill="#000000"/><text fill="#000000" font-family="sans-serif" font-size="14" lengthAdjust="spacing" textLength="47" x="1460.5" y="167.8985">JFrame</text><line style="stroke:#181818;stroke-width:0.5;" x1="1432.5" x2="1509.5" y1="178.17" y2="178.17"/><line style="stroke:#181818;stroke-width:0.5;" x1="1432.5" x2="1509.5" y1="186.17" y2="186.17"/></g><!--class BufferedImage--><g id="elem_BufferedImage"><rect fill="#F1F1F1" height="48" id="BufferedImage" rx="2.5" ry="2.5" style="stroke:#181818;stroke-width:0.5;" width="124" x="554" y="487.67"/><ellipse cx="569" cy="503.67" fill="#ADD1B2" rx="11" ry="11" style="stroke:#181818;stroke-width:1.0;"/><path d="M571.7656,499.545 Q571.9219,499.3262 572.1094,499.2169 Q572.2969,499.1075 572.5156,499.1075 Q572.8906,499.1075 573.125,499.3731 Q573.3594,499.6231 573.3594,500.2325 L573.3594,501.6856 Q573.3594,502.295 573.125,502.5606 Q572.8906,502.8262 572.5156,502.8262 Q572.1719,502.8262 571.9688,502.6231 Q571.7656,502.4356 571.6563,501.92 Q571.6094,501.5606 571.4219,501.3731 Q571.0938,500.9981 570.4844,500.7794 Q569.875,500.5606 569.25,500.5606 Q568.4844,500.5606 567.8438,500.8887 Q567.2188,501.2169 566.7188,501.9669 Q566.2344,502.7169 566.2344,503.7481 L566.2344,504.8419 Q566.2344,506.0762 567.125,506.9044 Q568.0156,507.7169 569.6094,507.7169 Q570.5469,507.7169 571.2031,507.4669 Q571.5938,507.3106 572.0156,506.8731 Q572.2813,506.6075 572.4219,506.5294 Q572.5781,506.4512 572.7813,506.4512 Q573.1094,506.4512 573.3594,506.7169 Q573.625,506.9669 573.625,507.3106 Q573.625,507.6544 573.2813,508.0606 Q572.7813,508.6387 571.9844,508.9669 Q570.9063,509.42 569.6094,509.42 Q568.0938,509.42 566.8906,508.795 Q565.9063,508.295 565.2188,507.2325 Q564.5313,506.1544 564.5313,504.8731 L564.5313,503.7169 Q564.5313,502.3887 565.1406,501.2481 Q565.7656,500.0919 566.8594,499.4825 Q567.9531,498.8575 569.1875,498.8575 Q569.9219,498.8575 570.5625,499.0294 Q571.2188,499.1856 571.7656,499.545 Z " fill="#000000"/><text fill="#000000" font-family="sans-serif" font-size="14" lengthAdjust="spacing" textLength="92" x="583" y="509.3985">BufferedImage</text><line style="stroke:#181818;stroke-width:0.5;" x1="555" x2="677" y1="519.67" y2="519.67"/><line style="stroke:#181818;stroke-width:0.5;" x1="555" x2="677" y1="527.67" y2="527.67"/></g><!--class Game--><g id="elem_Game"><rect codeLine="8" fill="#F1F1F1" height="206.4844" id="Game" rx="2.5" ry="2.5" style="stroke:#181818;stroke-width:0.5;" width="283" x="80.5" y="67.17"/><ellipse cx="198.75" cy="83.17" fill="#ADD1B2" rx="11" ry="11" style="stroke:#181818;stroke-width:1.0;"/><path d="M201.5156,79.045 Q201.6719,78.8262 201.8594,78.7169 Q202.0469,78.6075 202.2656,78.6075 Q202.6406,78.6075 202.875,78.8731 Q203.1094,79.1231 203.1094,79.7325 L203.1094,81.1856 Q203.1094,81.795 202.875,82.0606 Q202.6406,82.3262 202.2656,82.3262 Q201.9219,82.3262 201.7188,82.1231 Q201.5156,81.9356 201.4063,81.42 Q201.3594,81.0606 201.1719,80.8731 Q200.8438,80.4981 200.2344,80.2794 Q199.625,80.0606 199,80.0606 Q198.2344,80.0606 197.5938,80.3887 Q196.9688,80.7169 196.4688,81.4669 Q195.9844,82.2169 195.9844,83.2481 L195.9844,84.3419 Q195.9844,85.5762 196.875,86.4044 Q197.7656,87.2169 199.3594,87.2169 Q200.2969,87.2169 200.9531,86.9669 Q201.3438,86.8106 201.7656,86.3731 Q202.0313,86.1075 202.1719,86.0294 Q202.3281,85.9512 202.5313,85.9512 Q202.8594,85.9512 203.1094,86.2169 Q203.375,86.4669 203.375,86.8106 Q203.375,87.1544 203.0313,87.5606 Q202.5313,88.1387 201.7344,88.4669 Q200.6563,88.92 199.3594,88.92 Q197.8438,88.92 196.6406,88.295 Q195.6563,87.795 194.9688,86.7325 Q194.2813,85.6544 194.2813,84.3731 L194.2813,83.2169 Q194.2813,81.8887 194.8906,80.7481 Q195.5156,79.5919 196.6094,78.9825 Q197.7031,78.3575 198.9375,78.3575 Q199.6719,78.3575 200.3125,78.5294 Q200.9688,78.6856 201.5156,79.045 Z " fill="#000000"/><text fill="#000000" font-family="sans-serif" font-size="14" lengthAdjust="spacing" textLength="38" x="219.25" y="88.8985">Game</text><line style="stroke:#181818;stroke-width:0.5;" x1="81.5" x2="362.5" y1="99.17" y2="99.17"/><rect fill="none" height="6" style="stroke:#C82930;stroke-width:1.0;" width="6" x="88.5" y="110.4747"/><text fill="#000000" font-family="sans-serif" font-size="14" lengthAdjust="spacing" textLength="239" x="100.5" y="117.7032">java.awt.image.BufferedImage scene1</text><rect fill="none" height="6" style="stroke:#C82930;stroke-width:1.0;" width="6" x="88.5" y="128.0841"/><text fill="#000000" font-family="sans-serif" font-size="14" lengthAdjust="spacing" textLength="248" x="100.5" y="135.3126">java.awt.image.BufferedImage imgMask</text><rect fill="none" height="6" style="stroke:#C82930;stroke-width:1.0;" width="6" x="88.5" y="145.6934"/><text fill="#000000" font-family="sans-serif" font-size="14" lengthAdjust="spacing" textLength="257" x="100.5" y="152.922">java.awt.image.BufferedImage[] imgColor</text><rect fill="none" height="6" style="stroke:#C82930;stroke-width:1.0;" width="6" x="88.5" y="163.3028"/><text fill="#000000" font-family="sans-serif" font-size="14" lengthAdjust="spacing" textLength="96" x="100.5" y="170.5313">DrawArea draw</text><line style="stroke:#181818;stroke-width:0.5;" x1="81.5" x2="362.5" y1="177.6075" y2="177.6075"/><ellipse cx="91.5" cy="191.9122" fill="#84BE84" rx="3" ry="3" style="stroke:#038048;stroke-width:1.0;"/><text fill="#000000" font-family="sans-serif" font-size="14" lengthAdjust="spacing" textLength="48" x="100.5" y="196.1407">Game()</text><rect fill="#F24D5C" height="6" style="stroke:#C82930;stroke-width:1.0;" width="6" x="88.5" y="206.5216"/><text fill="#000000" font-family="sans-serif" font-size="14" lengthAdjust="spacing" textLength="112" x="100.5" y="213.7501">void loadImages()</text><rect fill="#F24D5C" height="6" style="stroke:#C82930;stroke-width:1.0;" width="6" x="88.5" y="224.1309"/><text fill="#000000" font-family="sans-serif" font-size="14" lengthAdjust="spacing" textLength="147" x="100.5" y="231.3595">void showStartScreen()</text><rect fill="#F24D5C" height="6" style="stroke:#C82930;stroke-width:1.0;" width="6" x="88.5" y="241.7403"/><text fill="#000000" font-family="sans-serif" font-size="14" lengthAdjust="spacing" textLength="106" x="100.5" y="248.9688">void startGame()</text><ellipse cx="91.5" cy="262.3497" fill="#84BE84" rx="3" ry="3" style="stroke:#038048;stroke-width:1.0;"/><text fill="#000000" font-family="sans-serif" font-size="14" lengthAdjust="spacing" textLength="184" x="100.5" y="266.5782">static void main(String[] args)</text></g><!--class ImageLoader--><g id="elem_ImageLoader"><rect codeLine="21" fill="#F1F1F1" height="83.2188" id="ImageLoader" rx="2.5" ry="2.5" style="stroke:#181818;stroke-width:0.5;" width="430" x="7" y="470.17"/><ellipse cx="176.25" cy="486.17" fill="#ADD1B2" rx="11" ry="11" style="stroke:#181818;stroke-width:1.0;"/><path d="M179.0156,482.045 Q179.1719,481.8262 179.3594,481.7169 Q179.5469,481.6075 179.7656,481.6075 Q180.1406,481.6075 180.375,481.8731 Q180.6094,482.1231 180.6094,482.7325 L180.6094,484.1856 Q180.6094,484.795 180.375,485.0606 Q180.1406,485.3262 179.7656,485.3262 Q179.4219,485.3262 179.2188,485.1231 Q179.0156,484.9356 178.9063,484.42 Q178.8594,484.0606 178.6719,483.8731 Q178.3438,483.4981 177.7344,483.2794 Q177.125,483.0606 176.5,483.0606 Q175.7344,483.0606 175.0938,483.3887 Q174.4688,483.7169 173.9688,484.4669 Q173.4844,485.2169 173.4844,486.2481 L173.4844,487.3419 Q173.4844,488.5762 174.375,489.4044 Q175.2656,490.2169 176.8594,490.2169 Q177.7969,490.2169 178.4531,489.9669 Q178.8438,489.8106 179.2656,489.3731 Q179.5313,489.1075 179.6719,489.0294 Q179.8281,488.9512 180.0313,488.9512 Q180.3594,488.9512 180.6094,489.2169 Q180.875,489.4669 180.875,489.8106 Q180.875,490.1544 180.5313,490.5606 Q180.0313,491.1387 179.2344,491.4669 Q178.1563,491.92 176.8594,491.92 Q175.3438,491.92 174.1406,491.295 Q173.1563,490.795 172.4688,489.7325 Q171.7813,488.6544 171.7813,487.3731 L171.7813,486.2169 Q171.7813,484.8887 172.3906,483.7481 Q173.0156,482.5919 174.1094,481.9825 Q175.2031,481.3575 176.4375,481.3575 Q177.1719,481.3575 177.8125,481.5294 Q178.4688,481.6856 179.0156,482.045 Z " fill="#000000"/><text fill="#000000" font-family="sans-serif" font-size="14" lengthAdjust="spacing" textLength="83" x="196.75" y="491.8985">ImageLoader</text><line style="stroke:#181818;stroke-width:0.5;" x1="8" x2="436" y1="502.17" y2="502.17"/><line style="stroke:#181818;stroke-width:0.5;" x1="8" x2="436" y1="510.17" y2="510.17"/><ellipse cx="18" cy="524.4747" fill="#84BE84" rx="3" ry="3" style="stroke:#038048;stroke-width:1.0;"/><text fill="#000000" font-family="sans-serif" font-size="14" lengthAdjust="spacing" textLength="374" x="27" y="528.7032">static java.awt.image.BufferedImage loadImage(String path)</text><ellipse cx="18" cy="542.0841" fill="#84BE84" rx="3" ry="3" style="stroke:#038048;stroke-width:1.0;"/><text fill="#000000" font-family="sans-serif" font-size="14" lengthAdjust="spacing" textLength="404" x="27" y="546.3126">static java.awt.image.BufferedImage[] loadImages(String[] paths)</text></g><!--class StartScreen--><g id="elem_StartScreen"><rect codeLine="26" fill="#F1F1F1" height="83.2188" id="StartScreen" rx="2.5" ry="2.5" style="stroke:#181818;stroke-width:0.5;" width="722" x="1111" y="470.17"/><ellipse cx="1430.25" cy="486.17" fill="#ADD1B2" rx="11" ry="11" style="stroke:#181818;stroke-width:1.0;"/><path d="M1433.0156,482.045 Q1433.1719,481.8262 1433.3594,481.7169 Q1433.5469,481.6075 1433.7656,481.6075 Q1434.1406,481.6075 1434.375,481.8731 Q1434.6094,482.1231 1434.6094,482.7325 L1434.6094,484.1856 Q1434.6094,484.795 1434.375,485.0606 Q1434.1406,485.3262 1433.7656,485.3262 Q1433.4219,485.3262 1433.2188,485.1231 Q1433.0156,484.9356 1432.9063,484.42 Q1432.8594,484.0606 1432.6719,483.8731 Q1432.3438,483.4981 1431.7344,483.2794 Q1431.125,483.0606 1430.5,483.0606 Q1429.7344,483.0606 1429.0938,483.3887 Q1428.4688,483.7169 1427.9688,484.4669 Q1427.4844,485.2169 1427.4844,486.2481 L1427.4844,487.3419 Q1427.4844,488.5762 1428.375,489.4044 Q1429.2656,490.2169 1430.8594,490.2169 Q1431.7969,490.2169 1432.4531,489.9669 Q1432.8438,489.8106 1433.2656,489.3731 Q1433.5313,489.1075 1433.6719,489.0294 Q1433.8281,488.9512 1434.0313,488.9512 Q1434.3594,488.9512 1434.6094,489.2169 Q1434.875,489.4669 1434.875,489.8106 Q1434.875,490.1544 1434.5313,490.5606 Q1434.0313,491.1387 1433.2344,491.4669 Q1432.1563,491.92 1430.8594,491.92 Q1429.3438,491.92 1428.1406,491.295 Q1427.1563,490.795 1426.4688,489.7325 Q1425.7813,488.6544 1425.7813,487.3731 L1425.7813,486.2169 Q1425.7813,484.8887 1426.3906,483.7481 Q1427.0156,482.5919 1428.1094,481.9825 Q1429.2031,481.3575 1430.4375,481.3575 Q1431.1719,481.3575 1431.8125,481.5294 Q1432.4688,481.6856 1433.0156,482.045 Z " fill="#000000"/><text fill="#000000" font-family="sans-serif" font-size="14" lengthAdjust="spacing" textLength="75" x="1450.75" y="491.8985">StartScreen</text><line style="stroke:#181818;stroke-width:0.5;" x1="1112" x2="1832" y1="502.17" y2="502.17"/><line style="stroke:#181818;stroke-width:0.5;" x1="1112" x2="1832" y1="510.17" y2="510.17"/><ellipse cx="1122" cy="524.4747" fill="#84BE84" rx="3" ry="3" style="stroke:#038048;stroke-width:1.0;"/><text fill="#000000" font-family="sans-serif" font-size="14" lengthAdjust="spacing" textLength="696" x="1131" y="528.7032">StartScreen(java.awt.event.ActionListener startGameListener, java.awt.event.ActionListener exitGameListener)</text><rect fill="#F24D5C" height="6" style="stroke:#C82930;stroke-width:1.0;" width="6" x="1119" y="539.0841"/><text fill="#000000" font-family="sans-serif" font-size="14" lengthAdjust="spacing" textLength="244" x="1131" y="546.3126">JButton createStyledButton(String text)</text></g><!--class DrawArea--><g id="elem_DrawArea"><rect codeLine="31" fill="#F1F1F1" height="259.3125" id="DrawArea" rx="2.5" ry="2.5" style="stroke:#181818;stroke-width:0.5;" width="923" x="398.5" y="40.67"/><ellipse cx="824.75" cy="56.67" fill="#ADD1B2" rx="11" ry="11" style="stroke:#181818;stroke-width:1.0;"/><path d="M827.5156,52.545 Q827.6719,52.3262 827.8594,52.2169 Q828.0469,52.1075 828.2656,52.1075 Q828.6406,52.1075 828.875,52.3731 Q829.1094,52.6231 829.1094,53.2325 L829.1094,54.6856 Q829.1094,55.295 828.875,55.5606 Q828.6406,55.8262 828.2656,55.8262 Q827.9219,55.8262 827.7188,55.6231 Q827.5156,55.4356 827.4063,54.92 Q827.3594,54.5606 827.1719,54.3731 Q826.8438,53.9981 826.2344,53.7794 Q825.625,53.5606 825,53.5606 Q824.2344,53.5606 823.5938,53.8887 Q822.9688,54.2169 822.4688,54.9669 Q821.9844,55.7169 821.9844,56.7481 L821.9844,57.8419 Q821.9844,59.0762 822.875,59.9044 Q823.7656,60.7169 825.3594,60.7169 Q826.2969,60.7169 826.9531,60.4669 Q827.3438,60.3106 827.7656,59.8731 Q828.0313,59.6075 828.1719,59.5294 Q828.3281,59.4512 828.5313,59.4512 Q828.8594,59.4512 829.1094,59.7169 Q829.375,59.9669 829.375,60.3106 Q829.375,60.6544 829.0313,61.0606 Q828.5313,61.6387 827.7344,61.9669 Q826.6563,62.42 825.3594,62.42 Q823.8438,62.42 822.6406,61.795 Q821.6563,61.295 820.9688,60.2325 Q820.2813,59.1544 820.2813,57.8731 L820.2813,56.7169 Q820.2813,55.3887 820.8906,54.2481 Q821.5156,53.0919 822.6094,52.4825 Q823.7031,51.8575 824.9375,51.8575 Q825.6719,51.8575 826.3125,52.0294 Q826.9688,52.1856 827.5156,52.545 Z " fill="#000000"/><text fill="#000000" font-family="sans-serif" font-size="14" lengthAdjust="spacing" textLength="62" x="845.25" y="62.3985">DrawArea</text><line style="stroke:#181818;stroke-width:0.5;" x1="399.5" x2="1320.5" y1="72.67" y2="72.67"/><rect fill="none" height="6" style="stroke:#C82930;stroke-width:1.0;" width="6" x="406.5" y="83.9747"/><text fill="#000000" font-family="sans-serif" font-size="14" lengthAdjust="spacing" textLength="88" x="418.5" y="91.2032">Image scene1</text><rect fill="none" height="6" style="stroke:#C82930;stroke-width:1.0;" width="6" x="406.5" y="101.5841"/><text fill="#000000" font-family="sans-serif" font-size="14" lengthAdjust="spacing" textLength="248" x="418.5" y="108.8126">java.awt.image.BufferedImage imgMask</text><rect fill="none" height="6" style="stroke:#C82930;stroke-width:1.0;" width="6" x="406.5" y="119.1934"/><text fill="#000000" font-family="sans-serif" font-size="14" lengthAdjust="spacing" textLength="257" x="418.5" y="126.422">java.awt.image.BufferedImage[] imgColor</text><rect fill="none" height="6" style="stroke:#C82930;stroke-width:1.0;" width="6" x="406.5" y="136.8028"/><text fill="#000000" font-family="sans-serif" font-size="14" lengthAdjust="spacing" textLength="124" x="418.5" y="144.0313">ArrayList&lt;Cat&gt; cats</text><rect fill="none" height="6" style="stroke:#C82930;stroke-width:1.0;" width="6" x="406.5" y="154.4122"/><text fill="#000000" font-family="sans-serif" font-size="14" lengthAdjust="spacing" textLength="75" x="418.5" y="161.6407">int numCats</text><rect fill="none" height="6" style="stroke:#C82930;stroke-width:1.0;" width="6" x="406.5" y="172.0216"/><text fill="#000000" font-family="sans-serif" font-size="14" lengthAdjust="spacing" textLength="208" x="418.5" y="179.2501">javax.swing.JFrame parentFrame</text><line style="stroke:#181818;stroke-width:0.5;" x1="399.5" x2="1320.5" y1="186.3262" y2="186.3262"/><ellipse cx="409.5" cy="200.6309" fill="#84BE84" rx="3" ry="3" style="stroke:#038048;stroke-width:1.0;"/><text fill="#000000" font-family="sans-serif" font-size="14" lengthAdjust="spacing" textLength="897" x="418.5" y="204.8595">DrawArea(Image scene1, java.awt.image.BufferedImage imgMask, java.awt.image.BufferedImage[] imgColor, javax.swing.JFrame parentFrame)</text><rect fill="#F24D5C" height="6" style="stroke:#C82930;stroke-width:1.0;" width="6" x="406.5" y="215.2403"/><text fill="#000000" font-family="sans-serif" font-size="14" lengthAdjust="spacing" textLength="168" x="418.5" y="222.4688">void setupMouseListener()</text><rect fill="#F24D5C" height="6" style="stroke:#C82930;stroke-width:1.0;" width="6" x="406.5" y="232.8497"/><text fill="#000000" font-family="sans-serif" font-size="14" lengthAdjust="spacing" textLength="194" x="418.5" y="240.0782">void handleCatClick(int x, int y)</text><ellipse cx="409.5" cy="253.4591" fill="#84BE84" rx="3" ry="3" style="stroke:#038048;stroke-width:1.0;"/><text fill="#000000" font-family="sans-serif" font-size="14" lengthAdjust="spacing" textLength="213" x="418.5" y="257.6876">void paintComponent(Graphics g)</text><rect fill="#F24D5C" height="6" style="stroke:#C82930;stroke-width:1.0;" width="6" x="406.5" y="268.0684"/><text fill="#000000" font-family="sans-serif" font-size="14" lengthAdjust="spacing" textLength="680" x="418.5" y="275.297">java.awt.image.BufferedImage resizeImage(java.awt.image.BufferedImage originalImage, int width, int height)</text><rect fill="#F24D5C" height="6" style="stroke:#C82930;stroke-width:1.0;" width="6" x="406.5" y="285.6778"/><text fill="#000000" font-family="sans-serif" font-size="14" lengthAdjust="spacing" textLength="142" x="418.5" y="292.9063">void showEndScreen()</text></g><!--class Cat--><g id="elem_Cat"><rect codeLine="47" fill="#F1F1F1" height="153.6563" id="Cat" rx="2.5" ry="2.5" style="stroke:#181818;stroke-width:0.5;" width="293" x="782.5" y="434.67"/><ellipse cx="913.75" cy="450.67" fill="#ADD1B2" rx="11" ry="11" style="stroke:#181818;stroke-width:1.0;"/><path d="M916.5156,446.545 Q916.6719,446.3262 916.8594,446.2169 Q917.0469,446.1075 917.2656,446.1075 Q917.6406,446.1075 917.875,446.3731 Q918.1094,446.6231 918.1094,447.2325 L918.1094,448.6856 Q918.1094,449.295 917.875,449.5606 Q917.6406,449.8262 917.2656,449.8262 Q916.9219,449.8262 916.7188,449.6231 Q916.5156,449.4356 916.4063,448.92 Q916.3594,448.5606 916.1719,448.3731 Q915.8438,447.9981 915.2344,447.7794 Q914.625,447.5606 914,447.5606 Q913.2344,447.5606 912.5938,447.8887 Q911.9688,448.2169 911.4688,448.9669 Q910.9844,449.7169 910.9844,450.7481 L910.9844,451.8419 Q910.9844,453.0762 911.875,453.9044 Q912.7656,454.7169 914.3594,454.7169 Q915.2969,454.7169 915.9531,454.4669 Q916.3438,454.3106 916.7656,453.8731 Q917.0313,453.6075 917.1719,453.5294 Q917.3281,453.4512 917.5313,453.4512 Q917.8594,453.4512 918.1094,453.7169 Q918.375,453.9669 918.375,454.3106 Q918.375,454.6544 918.0313,455.0606 Q917.5313,455.6387 916.7344,455.9669 Q915.6563,456.42 914.3594,456.42 Q912.8438,456.42 911.6406,455.795 Q910.6563,455.295 909.9688,454.2325 Q909.2813,453.1544 909.2813,451.8731 L909.2813,450.7169 Q909.2813,449.3887 909.8906,448.2481 Q910.5156,447.0919 911.6094,446.4825 Q912.7031,445.8575 913.9375,445.8575 Q914.6719,445.8575 915.3125,446.0294 Q915.9688,446.1856 916.5156,446.545 Z " fill="#000000"/><text fill="#000000" font-family="sans-serif" font-size="14" lengthAdjust="spacing" textLength="22" x="934.25" y="456.3985">Cat</text><line style="stroke:#181818;stroke-width:0.5;" x1="783.5" x2="1074.5" y1="466.67" y2="466.67"/><rect fill="none" height="6" style="stroke:#C82930;stroke-width:1.0;" width="6" x="790.5" y="477.9747"/><text fill="#000000" font-family="sans-serif" font-size="14" lengthAdjust="spacing" textLength="237" x="802.5" y="485.2032">java.awt.image.BufferedImage imgCat</text><rect fill="none" height="6" style="stroke:#C82930;stroke-width:1.0;" width="6" x="790.5" y="495.5841"/><text fill="#000000" font-family="sans-serif" font-size="14" lengthAdjust="spacing" textLength="105" x="802.5" y="502.8126">boolean isCheck</text><line style="stroke:#181818;stroke-width:0.5;" x1="783.5" x2="1074.5" y1="509.8887" y2="509.8887"/><ellipse cx="793.5" cy="524.1934" fill="#84BE84" rx="3" ry="3" style="stroke:#038048;stroke-width:1.0;"/><text fill="#000000" font-family="sans-serif" font-size="14" lengthAdjust="spacing" textLength="263" x="802.5" y="528.422">Cat(java.awt.image.BufferedImage image)</text><ellipse cx="793.5" cy="541.8028" fill="#84BE84" rx="3" ry="3" style="stroke:#038048;stroke-width:1.0;"/><text fill="#000000" font-family="sans-serif" font-size="14" lengthAdjust="spacing" textLength="267" x="802.5" y="546.0313">java.awt.image.BufferedImage getImgCat()</text><ellipse cx="793.5" cy="559.4122" fill="#84BE84" rx="3" ry="3" style="stroke:#038048;stroke-width:1.0;"/><text fill="#000000" font-family="sans-serif" font-size="14" lengthAdjust="spacing" textLength="115" x="802.5" y="563.6407">boolean isCheck()</text><ellipse cx="793.5" cy="577.0216" fill="#84BE84" rx="3" ry="3" style="stroke:#038048;stroke-width:1.0;"/><text fill="#000000" font-family="sans-serif" font-size="14" lengthAdjust="spacing" textLength="204" x="802.5" y="581.2501">void setCheck(boolean isCheck)</text></g><!--class EndScreen--><g id="elem_EndScreen"><rect codeLine="57" fill="#F1F1F1" height="65.6094" id="EndScreen" rx="2.5" ry="2.5" style="stroke:#181818;stroke-width:0.5;" width="366" x="2085" y="478.67"/><ellipse cx="2228.75" cy="494.67" fill="#ADD1B2" rx="11" ry="11" style="stroke:#181818;stroke-width:1.0;"/><path d="M2231.5156,490.545 Q2231.6719,490.3262 2231.8594,490.2169 Q2232.0469,490.1075 2232.2656,490.1075 Q2232.6406,490.1075 2232.875,490.3731 Q2233.1094,490.6231 2233.1094,491.2325 L2233.1094,492.6856 Q2233.1094,493.295 2232.875,493.5606 Q2232.6406,493.8262 2232.2656,493.8262 Q2231.9219,493.8262 2231.7188,493.6231 Q2231.5156,493.4356 2231.4063,492.92 Q2231.3594,492.5606 2231.1719,492.3731 Q2230.8438,491.9981 2230.2344,491.7794 Q2229.625,491.5606 2229,491.5606 Q2228.2344,491.5606 2227.5938,491.8887 Q2226.9688,492.2169 2226.4688,492.9669 Q2225.9844,493.7169 2225.9844,494.7481 L2225.9844,495.8419 Q2225.9844,497.0762 2226.875,497.9044 Q2227.7656,498.7169 2229.3594,498.7169 Q2230.2969,498.7169 2230.9531,498.4669 Q2231.3438,498.3106 2231.7656,497.8731 Q2232.0313,497.6075 2232.1719,497.5294 Q2232.3281,497.4512 2232.5313,497.4512 Q2232.8594,497.4512 2233.1094,497.7169 Q2233.375,497.9669 2233.375,498.3106 Q2233.375,498.6544 2233.0313,499.0606 Q2232.5313,499.6387 2231.7344,499.9669 Q2230.6563,500.42 2229.3594,500.42 Q2227.8438,500.42 2226.6406,499.795 Q2225.6563,499.295 2224.9688,498.2325 Q2224.2813,497.1544 2224.2813,495.8731 L2224.2813,494.7169 Q2224.2813,493.3887 2224.8906,492.2481 Q2225.5156,491.0919 2226.6094,490.4825 Q2227.7031,489.8575 2228.9375,489.8575 Q2229.6719,489.8575 2230.3125,490.0294 Q2230.9688,490.1856 2231.5156,490.545 Z " fill="#000000"/><text fill="#000000" font-family="sans-serif" font-size="14" lengthAdjust="spacing" textLength="70" x="2249.25" y="500.3985">EndScreen</text><line style="stroke:#181818;stroke-width:0.5;" x1="2086" x2="2450" y1="510.67" y2="510.67"/><line style="stroke:#181818;stroke-width:0.5;" x1="2086" x2="2450" y1="518.67" y2="518.67"/><ellipse cx="2096" cy="532.9747" fill="#84BE84" rx="3" ry="3" style="stroke:#038048;stroke-width:1.0;"/><text fill="#000000" font-family="sans-serif" font-size="14" lengthAdjust="spacing" textLength="340" x="2105" y="537.2032">EndScreen(java.awt.event.ActionListener exitListener)</text></g><!--class JButton--><g id="elem_JButton"><rect fill="#F1F1F1" height="48" id="JButton" rx="2.5" ry="2.5" style="stroke:#181818;stroke-width:0.5;" width="79" x="1829.5" y="666.67"/><ellipse cx="1844.5" cy="682.67" fill="#ADD1B2" rx="11" ry="11" style="stroke:#181818;stroke-width:1.0;"/><path d="M1847.2656,678.545 Q1847.4219,678.3263 1847.6094,678.2169 Q1847.7969,678.1075 1848.0156,678.1075 Q1848.3906,678.1075 1848.625,678.3731 Q1848.8594,678.6231 1848.8594,679.2325 L1848.8594,680.6856 Q1848.8594,681.295 1848.625,681.5606 Q1848.3906,681.8263 1848.0156,681.8263 Q1847.6719,681.8263 1847.4688,681.6231 Q1847.2656,681.4356 1847.1563,680.92 Q1847.1094,680.5606 1846.9219,680.3731 Q1846.5938,679.9981 1845.9844,679.7794 Q1845.375,679.5606 1844.75,679.5606 Q1843.9844,679.5606 1843.3438,679.8888 Q1842.7188,680.2169 1842.2188,680.9669 Q1841.7344,681.7169 1841.7344,682.7481 L1841.7344,683.8419 Q1841.7344,685.0763 1842.625,685.9044 Q1843.5156,686.7169 1845.1094,686.7169 Q1846.0469,686.7169 1846.7031,686.4669 Q1847.0938,686.3106 1847.5156,685.8731 Q1847.7813,685.6075 1847.9219,685.5294 Q1848.0781,685.4513 1848.2813,685.4513 Q1848.6094,685.4513 1848.8594,685.7169 Q1849.125,685.9669 1849.125,686.3106 Q1849.125,686.6544 1848.7813,687.0606 Q1848.2813,687.6388 1847.4844,687.9669 Q1846.4063,688.42 1845.1094,688.42 Q1843.5938,688.42 1842.3906,687.795 Q1841.4063,687.295 1840.7188,686.2325 Q1840.0313,685.1544 1840.0313,683.8731 L1840.0313,682.7169 Q1840.0313,681.3888 1840.6406,680.2481 Q1841.2656,679.0919 1842.3594,678.4825 Q1843.4531,677.8575 1844.6875,677.8575 Q1845.4219,677.8575 1846.0625,678.0294 Q1846.7188,678.1856 1847.2656,678.545 Z " fill="#000000"/><text fill="#000000" font-family="sans-serif" font-size="14" lengthAdjust="spacing" textLength="47" x="1858.5" y="688.3985">JButton</text><line style="stroke:#181818;stroke-width:0.5;" x1="1830.5" x2="1907.5" y1="698.67" y2="698.67"/><line style="stroke:#181818;stroke-width:0.5;" x1="1830.5" x2="1907.5" y1="706.67" y2="706.67"/></g><g id="elem_GMN30"><path d="M1868.5,498.67 L1868.5,525.0216 L2049.5,525.0216 L2049.5,508.67 L2039.5,498.67 L1868.5,498.67 " fill="#FEFFDD" style="stroke:#181818;stroke-width:0.5;"/><path d="M2039.5,498.67 L2039.5,508.67 L2049.5,508.67 L2039.5,498.67 " fill="#FEFFDD" style="stroke:#181818;stroke-width:1.0;"/><text fill="#000000" font-family="sans-serif" font-size="13" lengthAdjust="spacing" textLength="160" x="1874.5" y="517.1651">Inner class within DrawArea</text></g><!--reverse link JPanel to StartScreen--><g id="link_JPanel_StartScreen"><path d="M1569.8656,211.3486 C1551.2956,268.1386 1508.78,398.17 1485.29,470.01 " fill="none" id="JPanel-backto-StartScreen" style="stroke:#181818;stroke-width:1.0;"/><polygon fill="none" points="1575.46,194.24,1564.1627,209.4838,1575.5685,213.2134,1575.46,194.24" style="stroke:#181818;stroke-width:1.0;"/></g><!--reverse link JPanel to DrawArea--><g id="link_JPanel_DrawArea"><path d="M1571.2177,128.7982 C1562.9577,101.4382 1552.09,73.59 1528,40.67 C1502.62,6 1475.14,20.37 1432.5,25.67 C1396.26,30.17 1359.02,36.22 1321.76,43.3 " fill="none" id="JPanel-backto-DrawArea" style="stroke:#181818;stroke-width:1.0;"/><polygon fill="none" points="1576.42,146.03,1576.9616,127.0641,1565.4738,130.5323,1576.42,146.03" style="stroke:#181818;stroke-width:1.0;"/></g><!--reverse link JPanel to EndScreen--><g id="link_JPanel_EndScreen"><path d="M1637.4543,186.1556 C1720.7843,209.6556 1910.28,267.89 2067,355.67 C2129.86,390.88 2194.42,444.34 2232.86,478.37 " fill="none" id="JPanel-backto-EndScreen" style="stroke:#181818;stroke-width:1.0;"/><polygon fill="none" points="1620.13,181.27,1635.8257,191.9304,1639.0828,180.3809,1620.13,181.27" style="stroke:#181818;stroke-width:1.0;"/></g><!--link Game to DrawArea--><g id="link_Game_DrawArea"><path codeLine="61" d="M363.74,170.17 C375.21,170.17 380.68,170.17 392.15,170.17 " fill="none" id="Game-to-DrawArea" style="stroke:#181818;stroke-width:1.0;"/><polygon fill="#181818" points="398.15,170.17,389.15,166.17,393.15,170.17,389.15,174.17,398.15,170.17" style="stroke:#181818;stroke-width:1.0;"/></g><!--reverse link DrawArea to Cat--><g id="link_DrawArea_Cat"><path codeLine="62" d="M909.9001,311.3337 C912.6501,321.3737 911.95,319.85 914,329.67 C921.08,363.62 924.84,401.82 926.84,434.34 " fill="none" id="DrawArea-backto-Cat" style="stroke:#181818;stroke-width:1.0;"/><polygon fill="#181818" points="906.73,299.76,904.4571,306.6035,909.9001,311.3337,912.1729,304.4902,906.73,299.76" style="stroke:#181818;stroke-width:1.0;"/><text fill="#000000" font-family="sans-serif" font-size="13" lengthAdjust="spacing" textLength="25" x="917" y="344.1651">cats</text><text fill="#000000" font-family="sans-serif" font-size="13" lengthAdjust="spacing" textLength="32" x="893.1091" y="423.7352">many</text></g><!--reverse link DrawArea to BufferedImage--><g id="link_DrawArea_BufferedImage"><path codeLine="63" d="M543.6971,308.6857 C535.3071,317.9757 535.71,319.02 529,329.67 C495.18,383.36 553.42,452.19 589.92,487.5 " fill="none" id="DrawArea-backto-BufferedImage" style="stroke:#181818;stroke-width:1.0;"/><polygon fill="#181818" points="551.74,299.78,544.75,301.5519,543.6971,308.6857,550.6871,306.9138,551.74,299.78" style="stroke:#181818;stroke-width:1.0;"/><text fill="#000000" font-family="sans-serif" font-size="13" lengthAdjust="spacing" textLength="42" x="530" y="344.1651">scene1</text><text fill="#000000" font-family="sans-serif" font-size="13" lengthAdjust="spacing" textLength="7" x="575.3401" y="476.7966">1</text></g><!--reverse link DrawArea to BufferedImage--><g id="link_DrawArea_BufferedImage"><path codeLine="64" d="M625.5202,309.2374 C617.9602,318.5774 618.74,319.16 613,329.67 C585.34,380.28 598.88,451.33 608.76,487.52 " fill="none" id="DrawArea-backto-BufferedImage-1" style="stroke:#181818;stroke-width:1.0;"/><polygon fill="#181818" points="633.07,299.91,626.186,302.0571,625.5202,309.2374,632.4042,307.0903,633.07,299.91" style="stroke:#181818;stroke-width:1.0;"/><text fill="#000000" font-family="sans-serif" font-size="13" lengthAdjust="spacing" textLength="53" x="614" y="344.1651">imgMask</text><text fill="#000000" font-family="sans-serif" font-size="13" lengthAdjust="spacing" textLength="7" x="599.0079" y="476.8217">1</text></g><!--reverse link DrawArea to BufferedImage--><g id="link_DrawArea_BufferedImage"><path codeLine="65" d="M847.0065,311.0389 C840.5865,329.1289 835.04,334.66 821,347.67 C802.56,364.76 787.38,344.21 765,355.67 C704.21,386.82 654.19,452.64 630.61,487.65 " fill="none" id="DrawArea-backto-BufferedImage-2" style="stroke:#181818;stroke-width:1.0;"/><polygon fill="#181818" points="851.02,299.73,845.2436,304.0467,847.0065,311.0389,852.7829,306.7223,851.02,299.73" style="stroke:#181818;stroke-width:1.0;"/><text fill="#000000" font-family="sans-serif" font-size="13" lengthAdjust="spacing" textLength="51" x="834" y="344.1651">imgColor</text><text fill="#000000" font-family="sans-serif" font-size="13" lengthAdjust="spacing" textLength="32" x="638.4538" y="476.985">many</text></g><!--link DrawArea to JFrame--><g id="link_DrawArea_JFrame"><path codeLine="66" d="M1321.53,170.17 C1366.05,170.17 1398.53,170.17 1425.29,170.17 " fill="none" id="DrawArea-to-JFrame" style="stroke:#181818;stroke-width:1.0;"/><polygon fill="#181818" points="1431.29,170.17,1422.29,166.17,1426.29,170.17,1422.29,174.17,1431.29,170.17" style="stroke:#181818;stroke-width:1.0;"/><text fill="#000000" font-family="sans-serif" font-size="13" lengthAdjust="spacing" textLength="73" x="1340" y="163.6651">parentFrame</text><text fill="#000000" font-family="sans-serif" font-size="13" lengthAdjust="spacing" textLength="7" x="1416.5932" y="166.2714">1</text></g><!--link Game to ImageLoader--><g id="link_Game_ImageLoader"><path codeLine="67" d="M222,273.49 C222,339.48 222,415.71 222,463.98 " fill="none" id="Game-to-ImageLoader" style="stroke:#181818;stroke-width:1.0;"/><polygon fill="#181818" points="222,469.98,226,460.98,222,464.98,218,460.98,222,469.98" style="stroke:#181818;stroke-width:1.0;"/><text fill="#000000" font-family="sans-serif" font-size="13" lengthAdjust="spacing" textLength="74" x="223" y="344.1651">loadImages()</text></g><!--link Game to StartScreen--><g id="link_Game_StartScreen"><path codeLine="68" d="M332.85,273.43 C348.21,283.7 364.43,292.84 381,299.67 C501.2,349.25 548.08,290.31 672,329.67 C687.55,334.61 688.26,343.37 704,347.67 C745.71,359.05 1050.67,346.9 1093,355.67 C1203.16,378.5 1316.5964,429.6309 1391.2564,467.4109 " fill="none" id="Game-to-StartScreen" style="stroke:#181818;stroke-width:1.0;"/><polygon fill="#181818" points="1396.61,470.12,1390.3857,462.4873,1392.1487,467.8624,1386.7736,469.6255,1396.61,470.12" style="stroke:#181818;stroke-width:1.0;"/><text fill="#000000" font-family="sans-serif" font-size="13" lengthAdjust="spacing" textLength="107" x="705" y="344.1651">showStartScreen()</text></g><!--link StartScreen to JButton--><g id="link_StartScreen_JButton"><path codeLine="69" d="M1563.08,553.28 C1646.98,590.68 1762.0402,641.9762 1823.7702,669.5062 " fill="none" id="StartScreen-to-JButton" style="stroke:#181818;stroke-width:1.0;"/><polygon fill="#181818" points="1829.25,671.95,1822.6596,664.6311,1824.6835,669.9135,1819.4012,671.9374,1829.25,671.95" style="stroke:#181818;stroke-width:1.0;"/><text fill="#000000" font-family="sans-serif" font-size="13" lengthAdjust="spacing" textLength="119" x="1741" y="633.1651">createStyledButton()</text></g><!--link EndScreen to JButton--><g id="link_EndScreen_JButton"><path codeLine="70" d="M2202.29,544.72 C2163.2,563.54 2112.52,587.5 2067,607.67 C2012.57,631.79 1954.4085,655.5557 1914.2585,671.6657 " fill="none" id="EndScreen-to-JButton" style="stroke:#181818;stroke-width:1.0;"/><polygon fill="#181818" points="1908.69,673.9,1918.5322,674.2608,1913.3304,672.0381,1915.5532,666.8362,1908.69,673.9" style="stroke:#181818;stroke-width:1.0;"/><text fill="#000000" font-family="sans-serif" font-size="13" lengthAdjust="spacing" textLength="59" x="2041" y="633.1651">exitButton</text></g><!--link Cat to GMN30--><g id="link_Cat_GMN30"><path d="M981.9,434.38 C1014.14,394.39 1059.17,349.47 1111.5,327.67 C1185.55,296.82 1762.57,290.19 1833.5,327.67 C1904.61,365.24 1943.02,463.23 1954.92,498.65 " fill="none" id="Cat-GMN30" style="stroke:#181818;stroke-width:1.0;stroke-dasharray:7.0,7.0;"/></g><!--SRC=[hLHBRzim3BxxLwWvEMiIeDTWA91cMv6Y1GRaEEp0seojnPO2INcjs7yVPLcovRdRPJa45lcH_FYyoN771RAdjQmFKg0mx0USuBBGPowAHITERZpoAmYiObGZwX1V5DGO8nfHG3mSTpjKc6zgA1nm0MUpuFQvY9J1P9KPBiKprmO5giu6JqHk4Mk3qLfMieTjdacILQ0rUxGStn96l_c0aCx8ozseYjV52-ZzcExRTwjrCPpwauBpIY6md3wIHdZRn4sdBU8aUSug2Sw3ZkMwbEUj0MMscK8K0wLLz7pTMedXcTFMm4MwDOfgJxH05NgQ_FAPDx6UAIZLyIqsZfCDn5fNx02cdFx5WcBraWdnhLcVG2yfXXTgMQxzM7a-_Rm7hG-PUybiE1nuuH705-xfuMYC58pSWi6jkLQOEv5Fq12T7j7Gm56MS_P_nsMb55mjvuzhCFSi0wDR3QUr5CTwtKdQ7Jk0el5tozLMpdDE- -HcuxncxrAQZKI8vm_DyV0YZpfKEPxF4aHU8J5ULppRfpQ3own9vEedgC4TQ59Dk3Bfeu93oJFDYkbeGHLg_XFTKCOQgNZ11LJDoqKwyzoKxhD4NfJcZ_NwBFAmNA7hHFgTms2h0wPLlKfP8GZ6zRh4RE_hJu1qQ4N_FkbOLQ3PD3x35W-yfb6ngEXEEa3ro8UCtjkiBkMHhUasXXms5t9-7oOg2UlmOJvdanh4TT8KQ-bcDLRVJGQvBlsY_1FdjsOitWZMxL00pucozTeEy39Q4fSJ8Vf7S1cVu83ftwdbo3dkwotUtvVbs8MP9brhOh0jl7iaYP26XjpEAfCxveTj8so3N8FFt9HST4sX7ZDhzHi0]--></g></svg>